<svg xmlns="http://www.w3.org/2000/svg" viewBox="0 0 39.16 39.16"><defs><style>.cls-1{fill:#7a43aa;opacity:0.25;}.cls-2{fill:#fff;}</style></defs><g id="Layer_2" data-name="Layer 2"><g id="Layer_1-2" data-name="Layer 1"><rect class="cls-1" width="39.16" height="39.16"/><path class="cls-2" d="M31.09,13.76A3,3,0,0,0,29,11.62c-1.88-.51-9.39-.51-9.39-.51s-7.51,0-9.39.51a3,3,0,0,0-2.12,2.14,31.21,31.21,0,0,0-.51,5.82,31.15,31.15,0,0,0,.51,5.82,3,3,0,0,0,2.12,2.14c1.88.51,9.39.51,9.39.51s7.51,0,9.39-.51a3,3,0,0,0,2.12-2.14,31.15,31.15,0,0,0,.51-5.82A31.21,31.21,0,0,0,31.09,13.76Zm-14,9.4V16l6.28,3.57Z"/></g></g></svg>