<svg xmlns="http://www.w3.org/2000/svg" viewBox="0 0 39.16 39.16"><defs><style>.cls-1{fill:#7a43aa;opacity:0.25;}.cls-2{fill:#fff;}</style></defs><g id="Layer_2" data-name="Layer 2"><g id="Layer_1-2" data-name="Layer 1"><rect class="cls-1" width="39.16" height="39.16"/><path class="cls-2" d="M19.58,9.6c3.25,0,3.64,0,4.92.07a7.06,7.06,0,0,1,2.26.42,4,4,0,0,1,2.31,2.31,6.84,6.84,0,0,1,.42,2.26c.06,1.29.07,1.67.07,4.92s0,3.64-.07,4.92a6.78,6.78,0,0,1-.42,2.26,4,4,0,0,1-2.31,2.31,6.78,6.78,0,0,1-2.26.42c-1.28.06-1.67.07-4.92.07s-3.63,0-4.92-.07a6.84,6.84,0,0,1-2.26-.42,4,4,0,0,1-2.31-2.31,7.06,7.06,0,0,1-.42-2.26c-.06-1.28-.07-1.67-.07-4.92s0-3.63.07-4.92a7.12,7.12,0,0,1,.42-2.26,4,4,0,0,1,2.31-2.31,7.12,7.12,0,0,1,2.26-.42c1.29-.06,1.67-.07,4.92-.07m0-2.19c-3.31,0-3.72,0-5,.07a8.94,8.94,0,0,0-3,.57,6.16,6.16,0,0,0-3.56,3.56,8.94,8.94,0,0,0-.57,3c-.06,1.3-.07,1.71-.07,5s0,3.72.07,5a8.94,8.94,0,0,0,.57,2.95,6.16,6.16,0,0,0,3.56,3.56,8.94,8.94,0,0,0,3,.57c1.3.06,1.71.07,5,.07s3.72,0,5-.07a8.94,8.94,0,0,0,2.95-.57,6.16,6.16,0,0,0,3.56-3.56,8.94,8.94,0,0,0,.57-2.95c.06-1.3.07-1.71.07-5s0-3.72-.07-5a8.94,8.94,0,0,0-.57-3,6.16,6.16,0,0,0-3.56-3.56,8.94,8.94,0,0,0-2.95-.57c-1.3-.06-1.71-.07-5-.07"/><path class="cls-2" d="M19.58,13.33a6.25,6.25,0,1,0,6.25,6.25,6.25,6.25,0,0,0-6.25-6.25m0,10.31a4.06,4.06,0,1,1,4.06-4.06,4.06,4.06,0,0,1-4.06,4.06"/><path class="cls-2" d="M27.54,13.08a1.46,1.46,0,1,1-1.46-1.46,1.46,1.46,0,0,1,1.46,1.46"/></g></g></svg>