<svg xmlns="http://www.w3.org/2000/svg" viewBox="0 0 39.16 39.16"><defs><style>.cls-1{fill:#7a43aa;opacity:0.25;}.cls-2{fill:#fff;}</style></defs><g id="Layer_2" data-name="Layer 2"><g id="Layer_1-2" data-name="Layer 1"><rect class="cls-1" width="39.16" height="39.16"/><path class="cls-2" d="M7.94,26.9a13.59,13.59,0,0,0,20.9-12.07,9.64,9.64,0,0,0,2.38-2.47,9.35,9.35,0,0,1-2.74.75,4.84,4.84,0,0,0,2.1-2.64,9.92,9.92,0,0,1-3,1.16A4.78,4.78,0,0,0,19.41,16a13.53,13.53,0,0,1-9.85-5A4.78,4.78,0,0,0,11,17.37a4.7,4.7,0,0,1-2.17-.6,4.79,4.79,0,0,0,3.83,4.75,4.84,4.84,0,0,1-2.15.08A4.78,4.78,0,0,0,15,24.92,9.67,9.67,0,0,1,7.94,26.9Z"/></g></g></svg>